<?xml version="1.0" encoding="utf-8"?>
<!-- Generator: Adobe Illustrator 17.0.0, SVG Export Plug-In . SVG Version: 6.00 Build 0)  -->
<!DOCTYPE svg PUBLIC "-//W3C//DTD SVG 1.1//EN" "http://www.w3.org/Graphics/SVG/1.1/DTD/svg11.dtd">
<svg version="1.1" id="Слой_1" xmlns="http://www.w3.org/2000/svg" xmlns:xlink="http://www.w3.org/1999/xlink" x="0px" y="0px"
	 width="512px" height="512px" viewBox="0 0 512 512" enable-background="new 0 0 512 512" xml:space="preserve">
<g>
	<path fill="#FFFFFF" d="M506.121,69.641l-34.938-11.648c-7.637-2.566-13.625-8.559-16.191-16.191L443.344,6.863
		c-1.473-4.473-6.285-6.906-10.758-5.434c-2.57,0.844-4.59,2.859-5.434,5.434l-11.648,34.938
		c-2.566,7.633-8.559,13.629-16.191,16.191l-34.938,11.648c-4.473,1.469-6.906,6.285-5.438,10.758
		c0.848,2.57,2.863,4.59,5.438,5.434l34.086,11.359c7.992,2.656,14.164,9.082,16.496,17.18l12.102,42.359
		c1.285,4.527,5.996,7.156,10.523,5.871c2.844-0.809,5.063-3.027,5.871-5.871l12.094-42.352c2.316-8.117,8.496-14.566,16.504-17.23
		l34.086-11.359c4.473-1.469,6.906-6.285,5.434-10.758c-0.844-2.57-2.859-4.586-5.434-5.434L506.121,69.641z M466.664,81
		c-13.348,4.445-23.641,15.191-27.504,28.719l-3.906,13.676l-3.91-13.676c-3.863-13.527-14.152-24.273-27.5-28.719l-9.816-3.273
		l10.711-3.57c12.707-4.27,22.68-14.246,26.945-26.953l3.57-10.695l3.574,10.703c4.27,12.703,14.242,22.676,26.941,26.945
		l10.715,3.57L466.664,81z"/>
	<path fill="#FFFFFF" d="M460.82,222.594h17.043v17.043H460.82V222.594z"/>
	<path fill="#FFFFFF" d="M477.863,145.898h17.043v17.043h-17.043V145.898z"/>
	<path fill="#FFFFFF" d="M426.734,179.984h17.043v17.043h-17.043V179.984z"/>
	<path fill="#FFFFFF" d="M354.711,140.785C290.73,53.289,167.934,34.223,80.434,98.203S-26.129,284.98,37.852,372.48
		s186.777,106.563,274.277,42.582c28.16-20.59,50.324-48.32,64.211-80.328l0.066-0.152
		C404.086,270.711,395.828,196.957,354.711,140.785z M223.863,79.824c97.527,14.93,164.484,106.09,149.559,203.617
		c-2.137,13.941-5.914,27.582-11.254,40.633c-98.359,8.047-184.617-65.164-192.66-163.523c-2.289-27.984,2.047-56.113,12.66-82.105
		C196.074,77.285,210.066,77.75,223.863,79.824z M302.473,401c-79.617,58.555-191.629,41.484-250.184-38.133
		C-6.27,283.25,10.805,171.238,90.422,112.68c21.512-15.824,46.297-26.629,72.531-31.629
		C127.09,183.082,180.73,294.867,282.762,330.73c20.988,7.375,43.082,11.121,65.328,11.078c1.941,0,3.887-0.102,5.828-0.16
		C341.414,365.02,323.836,385.301,302.473,401z"/>
</g>
</svg>
