<?xml version="1.0" encoding="utf-8"?>
<!-- Generator: Adobe Illustrator 17.0.0, SVG Export Plug-In . SVG Version: 6.00 Build 0)  -->
<!DOCTYPE svg PUBLIC "-//W3C//DTD SVG 1.1//EN" "http://www.w3.org/Graphics/SVG/1.1/DTD/svg11.dtd">
<svg version="1.1" id="Слой_1" xmlns="http://www.w3.org/2000/svg" xmlns:xlink="http://www.w3.org/1999/xlink" x="0px" y="0px"
	 width="512px" height="512px" viewBox="0 0 512 512" enable-background="new 0 0 512 512" xml:space="preserve">
<g>
	<path fill="#FFFFFF" d="M176.791,135.007c8.465-4.938,18.082-7.543,27.883-7.555h0.059v-17.07
		c-12.82,0.141-25.399,3.539-36.547,9.875c-17.328,10.141-29.703,26.985-34.2,46.551l16.645,3.809
		C153.982,155.609,163.471,142.691,176.791,135.007z"/>
	<path fill="#FFFFFF" d="M156.791,210.867l-14.738,8.594c5.883,10.098,14.113,18.629,23.992,24.871l9.09-14.449
		C167.564,225.129,161.267,218.602,156.791,210.867z"/>
	<path fill="#FFFFFF" d="M260.87,67.733L298.91,0.994l14.828,8.453l-38.039,66.739L260.87,67.733z"/>
	<path fill="#FFFFFF" d="M94.11,10.654l14.738-8.613l38.77,66.317l-14.738,8.613L94.11,10.654z"/>
	<path fill="#FFFFFF" d="M0,175.773l76.817-0.418l0.09,17.07l-76.813,0.418L0,175.773z"/>
	<path fill="#FFFFFF" d="M96.028,356.927l38.039-66.739l14.828,8.453l-38.039,66.739L96.028,356.927z"/>
	<path fill="#FFFFFF" d="M422.38,236.992h-0.359c-4.473-56.149-53.614-98.036-109.763-93.564c-1.254,0.098-2.504,0.223-3.754,0.367
		C286.925,86.444,222.936,57.44,165.58,79.018c-57.352,21.582-86.356,85.571-64.774,142.923
		c11.438,30.407,35.629,54.27,66.184,65.298c-21.821,44.34-3.563,97.978,40.778,119.798c12.332,6.066,25.899,9.215,39.641,9.195
		H422.38c49.497,0,89.622-40.125,89.622-89.622C512.002,277.118,471.876,236.992,422.38,236.992z M123.65,230.164
		c-26.2-44.747-11.16-102.259,33.586-128.458c44.75-26.196,102.263-11.156,128.458,33.59c2.23,3.805,4.188,7.766,5.859,11.848
		c-42.579,12.36-72.399,50.676-73.923,94.985c-16.403,5.816-30.754,16.285-41.293,30.129c-22.219-6.938-41.036-21.938-52.747-42.051
		L123.65,230.164z M422.38,399.162H247.409c-40.043,0.012-72.516-32.438-72.528-72.485c-0.012-32.758,21.942-61.454,53.563-70.012
		l6.504-1.758l-0.34-9.387c0.02-47.137,38.25-85.337,85.388-85.313c47.11,0.02,85.294,38.204,85.313,85.313v8.535h17.07
		c40.067,0,72.552,32.481,72.552,72.548s-32.485,72.548-72.552,72.548V399.162z"/>
	<path fill="#FFFFFF" d="M198.178,22.189h17.071V56.33h-17.071V22.189z"/>
	<path fill="#FFFFFF" d="M61.926,110.518l8.551-14.774l29.551,17.102l-8.551,14.774L61.926,110.518z"/>
	<path fill="#FFFFFF" d="M61.778,257.891l29.586-17.035l8.516,14.793l-29.586,17.035L61.778,257.891z"/>
	<path fill="#FFFFFF" d="M313.242,113.077l29.586-17.035l8.516,14.793l-29.586,17.039L313.242,113.077z"/>
	<path fill="#FFFFFF" d="M401.043,365.021h34.141v17.07h-34.141V365.021z"/>
	<path fill="#FFFFFF" d="M366.902,365.021h17.07v17.07h-17.07V365.021z"/>
</g>
</svg>
