<?xml version="1.0" encoding="utf-8"?>
<!-- Generator: Adobe Illustrator 17.0.0, SVG Export Plug-In . SVG Version: 6.00 Build 0)  -->
<!DOCTYPE svg PUBLIC "-//W3C//DTD SVG 1.1//EN" "http://www.w3.org/Graphics/SVG/1.1/DTD/svg11.dtd">
<svg version="1.1" id="Слой_1" xmlns="http://www.w3.org/2000/svg" xmlns:xlink="http://www.w3.org/1999/xlink" x="0px" y="0px"
	 width="512px" height="512px" viewBox="0 0 512 512" enable-background="new 0 0 512 512" xml:space="preserve">
<g>
	<path fill="#FFFFFF" d="M263.332,74.078l24.141,8.043c4.809,1.609,8.52,5.488,9.914,10.363l8.578,30.016
		c1.344,4.664,6.207,7.355,10.871,6.012c2.902-0.836,5.172-3.105,6.008-6.012l8.582-30.016c1.395-4.875,5.105-8.754,9.914-10.363
		l24.141-8.043c4.609-1.516,7.117-6.477,5.602-11.086c-0.871-2.648-2.949-4.73-5.602-5.602l-24.73-8.234
		c-4.605-1.531-8.219-5.145-9.754-9.75l-8.258-24.766c-1.512-4.605-6.477-7.113-11.082-5.602c-2.652,0.871-4.73,2.953-5.602,5.602
		l-8.254,24.773c-1.539,4.598-5.145,8.211-9.742,9.75l-24.766,8.262c-4.605,1.516-7.113,6.477-5.598,11.086
		c0.871,2.652,2.949,4.73,5.598,5.602L263.332,74.078z M314.406,45.211c3.313,9.652,10.895,17.234,20.551,20.543
		c-9.938,3.613-17.535,11.781-20.418,21.953l-0.133,0.465l-0.133-0.465c-2.887-10.172-10.48-18.34-20.418-21.953
		C303.512,62.445,311.094,54.863,314.406,45.211z"/>
	<path fill="#FFFFFF" d="M362.707,190.352h17.563v17.563h-17.563V190.352z"/>
	<path fill="#FFFFFF" d="M389.051,111.313h17.566v17.566h-17.566V111.313z"/>
	<path fill="#FFFFFF" d="M327.578,146.441h17.566v17.563h-17.566V146.441z"/>
	<path fill="#FFFFFF" d="M380.27,228.219c-34.016-0.066-66.707,13.203-91.059,36.953c-0.879-0.43-1.758-0.816-2.582-1.211
		c10.824-12.738,19.602-27.078,26.02-42.512c1.855-4.484-0.273-9.621-4.754-11.477c-1.699-0.703-3.578-0.855-5.371-0.434
		c-77.777,18.379-155.73-29.773-174.109-107.551c-7-29.641-4.477-60.73,7.219-88.848c1.852-4.484-0.277-9.617-4.758-11.473
		c-1.699-0.703-3.57-0.855-5.359-0.438C38.23,21.547-16.055,108.773,4.262,196.059c13.852,59.504,59.949,106.184,119.277,120.777
		c-22.93,3.211-43.309,16.285-55.785,35.789c-37.996,7.859-62.422,45.035-54.563,83.031c6.727,32.512,35.293,55.875,68.492,56.02
		h289.805c1.371,0,2.715-0.086,4.461-0.199l1.133,0.063c1.055,0.07,2.109,0.141,3.188,0.141c72.754,0,131.73-58.98,131.73-131.73
		C512,287.195,453.023,228.219,380.27,228.219z M17.68,157.672c0.59-60.527,38.852-114.273,95.855-134.637
		c-25.227,85.996,24.035,176.156,110.031,201.379c21.273,6.242,43.605,8.059,65.609,5.332
		c-5.648,10.098-12.492,19.477-20.383,27.938c-43.32-11.047-88.734,7.781-111.531,46.234
		c-78.543-2.723-140.543-67.66-139.633-146.246H17.68z M380.27,474.113c-0.668,0-1.316-0.051-1.977-0.098l-2.105-0.113
		c-0.5-0.035-1-0.023-1.492,0.043c-1.063,0.082-2.125,0.168-3.207,0.168H81.684c-29.102-0.211-52.516-23.977-52.305-53.074
		c0.191-25.996,19.309-47.965,45.023-51.746c2.715-0.379,5.094-2.004,6.438-4.391c12.699-23.008,38.777-35.207,64.574-30.211
		c-1.141,5.281-1.855,10.648-2.141,16.043c-0.246,4.844,3.484,8.969,8.328,9.211c0.012,0.004,0.02,0.004,0.031,0.004h0.422
		c4.691,0.004,8.563-3.684,8.781-8.371c2.199-46.023,41.289-81.551,87.313-79.355c24.133,1.152,46.586,12.711,61.543,31.688
		c3,3.809,8.523,4.465,12.332,1.461c3.813-3,4.465-8.523,1.465-12.332c-5.5-6.883-11.863-13.027-18.934-18.277
		c20.77-18.719,47.754-29.047,75.715-28.98c63.055,0,114.168,51.113,114.168,114.168C494.438,423,443.324,474.113,380.27,474.113z"
		/>
</g>
</svg>
