<?xml version="1.0" encoding="utf-8"?>
<!-- Generator: Adobe Illustrator 17.0.0, SVG Export Plug-In . SVG Version: 6.00 Build 0)  -->
<!DOCTYPE svg PUBLIC "-//W3C//DTD SVG 1.1//EN" "http://www.w3.org/Graphics/SVG/1.1/DTD/svg11.dtd">
<svg version="1.1" id="Слой_1" xmlns="http://www.w3.org/2000/svg" xmlns:xlink="http://www.w3.org/1999/xlink" x="0px" y="0px"
	 width="512px" height="512px" viewBox="0 0 512 512" enable-background="new 0 0 512 512" xml:space="preserve">
<g>
	<path fill="#FFFFFF" d="M134.363,331.516l-8.824,17.656c-2.215,4.344-0.488,9.656,3.855,11.871s9.66,0.484,11.871-3.859
		c0.023-0.039,0.043-0.082,0.063-0.121l8.828-17.656c2.211-4.344,0.484-9.656-3.859-11.871c-4.344-2.211-9.656-0.484-11.871,3.859
		C134.406,331.434,134.383,331.477,134.363,331.516z"/>
	<path fill="#FFFFFF" d="M75.594,327.52c-4.359-2.18-9.664-0.414-11.844,3.945c0,0.004,0,0.004-0.004,0.008l-8.824,17.652
		c-2.215,4.344-0.484,9.66,3.855,11.875c4.348,2.211,9.66,0.484,11.875-3.859c0.02-0.039,0.039-0.082,0.059-0.121l8.828-17.656
		c2.184-4.359,0.418-9.66-3.941-11.844H75.594z"/>
	<path fill="#FFFFFF" d="M107.883,384.48l-8.828,17.652c-2.211,4.344-0.484,9.66,3.859,11.871c4.344,2.215,9.66,0.488,11.871-3.859
		c0.023-0.039,0.043-0.078,0.063-0.121l8.828-17.652c2.211-4.344,0.484-9.66-3.859-11.875c-4.344-2.211-9.66-0.484-11.871,3.859
		C107.922,384.398,107.902,384.438,107.883,384.48z"/>
	<path fill="#FFFFFF" d="M37.266,384.48l-8.824,17.652c-2.215,4.344-0.488,9.66,3.855,11.871c4.344,2.215,9.66,0.488,11.875-3.855
		c0.02-0.043,0.039-0.082,0.059-0.125l8.828-17.652c2.211-4.344,0.484-9.66-3.859-11.871c-4.344-2.215-9.656-0.488-11.871,3.855
		C37.309,384.398,37.285,384.438,37.266,384.48z"/>
	<path fill="#FFFFFF" d="M76.531,466.984c4.359,2.176,9.656,0.406,11.836-3.953l8.824-17.656c2.215-4.344,0.488-9.656-3.855-11.871
		c-4.344-2.211-9.66-0.484-11.871,3.859c-0.023,0.039-0.043,0.082-0.063,0.121l-8.828,17.656c-2.18,4.359-0.41,9.66,3.949,11.84
		C76.523,466.984,76.527,466.984,76.531,466.984z"/>
	<path fill="#FFFFFF" d="M5.914,466.984c4.367,2.164,9.664,0.375,11.824-3.996c0.004,0,0.004,0,0.004-0.004l8.824-17.652
		c2.215-4.344,0.488-9.66-3.855-11.871c-4.344-2.215-9.66-0.488-11.871,3.855c-0.023,0.043-0.043,0.082-0.063,0.125l-8.828,17.652
		c-2.195,4.352-0.449,9.66,3.902,11.859C5.871,466.965,5.891,466.977,5.914,466.984z"/>
	<path fill="#FFFFFF" d="M443.313,331.516l-8.828,17.656c-2.215,4.344-0.484,9.656,3.859,11.871
		c4.344,2.211,9.66,0.484,11.871-3.859c0.02-0.039,0.039-0.082,0.059-0.121l8.828-17.656c2.215-4.344,0.484-9.656-3.859-11.871
		c-4.344-2.211-9.66-0.484-11.871,3.859C443.352,331.438,443.332,331.477,443.313,331.516z"/>
	<path fill="#FFFFFF" d="M384.539,327.52c-4.359-2.18-9.66-0.414-11.84,3.945c-0.004,0.004-0.004,0.004-0.004,0.008l-8.828,17.652
		c-2.211,4.344-0.484,9.66,3.859,11.875c4.344,2.211,9.66,0.484,11.871-3.859c0.02-0.043,0.043-0.082,0.063-0.121l8.824-17.656
		c2.184-4.359,0.418-9.66-3.941-11.844C384.543,327.52,384.543,327.52,384.539,327.52z"/>
	<path fill="#FFFFFF" d="M416.828,384.48l-8.824,17.652c-2.215,4.344-0.484,9.66,3.859,11.871c4.344,2.215,9.656,0.484,11.871-3.859
		c0.02-0.039,0.039-0.078,0.059-0.121l8.828-17.652c2.211-4.344,0.484-9.66-3.859-11.871c-4.344-2.215-9.66-0.488-11.871,3.859
		C416.871,384.398,416.848,384.438,416.828,384.48z"/>
	<path fill="#FFFFFF" d="M346.215,384.48l-8.828,17.652c-2.215,4.344-0.484,9.66,3.859,11.871c4.344,2.215,9.66,0.484,11.871-3.859
		c0.02-0.039,0.039-0.078,0.059-0.121l8.828-17.652c2.215-4.344,0.484-9.66-3.859-11.871c-4.344-2.215-9.66-0.488-11.871,3.859
		C346.254,384.398,346.234,384.438,346.215,384.48z"/>
	<path fill="#FFFFFF" d="M385.477,466.984c4.359,2.176,9.66,0.406,11.836-3.953l8.828-17.656c2.211-4.344,0.484-9.656-3.859-11.871
		c-4.344-2.211-9.66-0.484-11.871,3.859c-0.023,0.039-0.043,0.082-0.063,0.121l-8.828,17.656c-2.18,4.359-0.41,9.66,3.949,11.84
		C385.473,466.984,385.473,466.984,385.477,466.984z"/>
	<path fill="#FFFFFF" d="M319.73,437.441l-8.824,17.652c-2.215,4.344-0.484,9.66,3.859,11.875c4.344,2.211,9.656,0.484,11.871-3.859
		c0.02-0.043,0.039-0.082,0.059-0.121l8.828-17.656c2.211-4.344,0.484-9.66-3.859-11.871s-9.66-0.484-11.871,3.859
		C319.773,437.359,319.754,437.402,319.73,437.441z"/>
	<path fill="#FFFFFF" d="M197.426,54.938l-4.414-17.086c-35.086,9.047-59.598,40.699-59.574,76.934h17.652
		C151.082,86.605,170.141,61.988,197.426,54.938z"/>
	<path fill="#FFFFFF" d="M398.25,238.363h35.305v17.656H398.25V238.363z"/>
	<path fill="#FFFFFF" d="M362.941,238.363h17.652v17.656h-17.652V238.363z"/>
	<path fill="#FFFFFF" d="M124.609,238.363h35.309v17.656h-35.309V238.363z"/>
	<path fill="#FFFFFF" d="M89.301,238.363h17.656v17.656H89.301V238.363z"/>
	<path fill="#FFFFFF" d="M106.957,291.328h93.848l-22.949,85.992c-1.258,4.711,1.539,9.547,6.25,10.805
		c0.75,0.199,1.52,0.301,2.293,0.301h31.609l-39.922,111.785c-1.637,4.59,0.758,9.641,5.352,11.277
		c3.586,1.277,7.586,0.109,9.926-2.895l123.578-158.883c2.996-3.852,2.301-9.395-1.547-12.391c-1.547-1.203-3.453-1.855-5.418-1.859
		h-39.719l20.301-44.133H424.73c43.855-0.051,79.395-35.59,79.441-79.445v-8.824c-0.047-43.855-35.586-79.398-79.441-79.445h-9.965
		c-7.211-45.645-50.059-76.805-95.703-69.594c-6.816,1.078-13.473,2.992-19.816,5.703c-25.492-52.609-88.809-74.598-141.418-49.105
		c-36.539,17.703-59.73,54.742-59.699,95.34v18.141c-40.188,4.547-70.566,38.516-70.617,78.957v8.828
		C27.563,255.738,63.102,291.277,106.957,291.328z M248.445,340.602c-2.039,4.426-0.102,9.668,4.328,11.707
		c1.156,0.531,2.414,0.809,3.688,0.809h35.465l-78.699,101.191l25.598-71.746c1.637-4.59-0.758-9.641-5.348-11.277
		c-0.945-0.34-1.941-0.512-2.941-0.516h-32.66l30.594-114.75h58.879L248.445,340.602z M45.168,203.059
		c0.039-34.109,27.68-61.754,61.789-61.793h8.824v-35.305c-0.039-48.719,39.418-88.246,88.133-88.285
		c36.781-0.031,69.723,22.762,82.656,57.195l3.66,9.711l8.988-5.156c31.617-18.184,71.992-7.293,90.176,24.328
		c5.133,8.926,8.105,18.926,8.688,29.207l0.484,8.316h26.207c34.109,0.039,61.75,27.68,61.789,61.789v8.824
		c-0.039,34.109-27.68,61.75-61.789,61.789H298.68l10.484-22.789c2.043-4.426,0.113-9.672-4.313-11.715
		c-1.16-0.535-2.422-0.813-3.699-0.813h-79.445c-3.996,0-7.496,2.688-8.527,6.551l-7.668,28.758h-98.555
		c-34.109-0.039-61.75-27.68-61.789-61.789V203.059z"/>
</g>
</svg>
